<svg enable-background="new 0 0 256 256" viewBox="0 0 256 256" xmlns="http://www.w3.org/2000/svg"><path clip-rule="evenodd" d="m0 0h256v256h-256z" fill="#0e11a8" fill-rule="evenodd"/><g transform="translate(28 28)"><path clip-rule="evenodd" d="m164.1 1.6c7.5.2 15.1.5 22.6-.1 5.7-.4 10.6-1.9 12.3 3.7 1.7 5.8-.1 13.8.2 19.9.4 8.8.7 17.5.8 26.3.4 30.4-1.5 60.7-1.6 91.1 0 10.4 0 20.8.1 31.2.1 7.3 4.1 20.4-6.9 21.6-2.6.3-5.3 0-8-.2-27.5-2-55.6 4.4-83.2 4.9-17 .3-34.1-.2-51-1.5-8.9-.7-17.8-1.7-26.7-2.8-4.5-.6-16.7-.9-20.1-4.1-3.9-3.7-2.2-10.6-1.6-15.2.9-6.6 1.5-13.1 1.9-19.8 1-15-1.3-30.1-1.1-45.2.2-18 1-28.4-.1-46.4-.5-9.2.5-26-.4-35.2-.4-6.5-2.3-19.1-.7-25.5 1.4-5.6 22.6-4.1 26.9-4.1 16.4 0 32.9 0 49.3.1 29.1.1 58.2.4 87.3 1.3z" fill="#1519d3" fill-rule="evenodd"/><path d="m159 53.3c-5.9-6.5-16-14.1-37.7-17.7-.2-1.5-1.4-2.9-3.1-3.4-33.1-8.7-66.5 8.8-83.3 43.5-7 14.6-7.8 30.1-2.4 44.7 8.3 22.3 28.8 37.9 44 44.3 7.5 3.2 15.4 4.8 23.4 4.8 11.2 0 22.7-3.2 33.3-9.5 10.8-6.4 19.6-15.3 26.1-26.1 0 0 0 .1.1.1.8.8 1.9 1.2 3 1.2 2.4 0 4.2-1.9 4.1-4.2 0-2.8-.8-5.1-2.1-7 3.4-8.1 5.7-17 6.7-26.4 2-18.8-2.3-33.6-12.1-44.3zm-6.1 5.8c8.1 8.8 11.5 21.4 9.8 37.5-.7 7.7-2.5 15-5.1 21.7-8.6-4.3-21.7-4.7-30.2-5.1-2.5-.2-4.9-.2-5.9-.3-2.9-.3-3.7-1-4.1-1.2 0-2 4.7-7.6 7.3-10.7 4.6-5.4 8.8-10.5 9.3-15.5.3-3.9-1.2-6.1-2.5-7.3-3.7-3.4-9.8-2-16.1-.7-4.6 1-11.5 2.5-12.2.3-1.2-3.7 1.5-11.2 6.8-18.9 6.2-8.8 13.1-13.8 15.5-14.1 10.6 2.5 20.5 6.8 27.4 14.3zm-107.1 68.7c-1-4.6 1.1-12.7 5.8-21.7 4.9-9.3 10.7-16.3 13.6-18.2 1.9-1.2 2.7-1.2 2.7-1.2 1.4 1 2.5 5.8 1 22.8-.2 1.2-.3 2.2-.3 3.1l-.8 10.9 8-7.1c4.1-3.9 11.2-5.8 15.6-4.2 2.9 1 4.6 3.4 5.3 7.1 1.2 6.8-.5 13.6-5.6 21.6-.5 1-1.5 2.4-2.5 3.6-2.8 3.5-6.3 7.8-6.9 13.1-.6-.2-1.2-.4-1.7-.7-11.1-4.8-25.4-14.9-34.2-29.1zm83.1 24.9c-12.4 7.2-26.1 9.7-38.9 7.2 0-.1 0-.2 0-.3-.3-3.2 2.4-6.8 5.1-10.2 1-1.5 2.2-2.9 3.1-4.2 3.9-6.1 8.8-15.8 6.8-27.5-1-6.8-4.9-11.7-10.8-13.8-5.3-1.9-11.2-1-16.3 1 .8-11.6.5-21.6-5.4-25.3-2.2-1.4-5.9-2.4-11.5 1-6.8 4-17.1 19.1-21.5 33-3.4-11.4-2.3-23 3.2-34.4 9.2-19.5 23.9-32.7 40.9-38.2.7.8 1.9 1.2 2.9 1.2 8-.3 17.3-.3 26.5.7-3.7 3.3-7.2 7.5-9.9 11.3-3.4 4.8-10.9 17-7.8 26.3 3.1 9.5 14.4 7.1 22.1 5.4 2.5-.5 6.6-1.3 8.3-1.2-.2 2.2-4.2 7.1-7.3 10.7-5.8 6.8-11.2 13.1-8.8 19.2 1.9 5.3 8.5 6.3 10.7 6.6 1.5.2 3.9.2 6.8.3 6.9.3 20.3.8 27 4.2-5.9 11.4-14.5 20.7-25.2 27z" fill="#fff"/></g></svg>